<svg width="380" height="260" viewBox="0 0 380 260" xmlns="http://www.w3.org/2000/svg" font-family="'Fira Code', 'Courier New', monospace">

  <!-- Window frame -->
  <rect x="10" y="10" width="360" height="240" rx="12" fill="#1f2335" stroke="#3b3f57" stroke-width="1.5"/>

  <!-- Title bar -->
  <rect x="10" y="10" width="360" height="30" rx="12" fill="#16161e"/>
  <rect x="10" y="28" width="360" height="12" fill="#16161e"/>
  <circle cx="28" cy="25" r="5" fill="#f7768e"/>
  <circle cx="46" cy="25" r="5" fill="#e0af68"/>
  <circle cx="64" cy="25" r="5" fill="#9ece6a"/>
  <text x="190" y="29" text-anchor="middle" fill="#737aa2" font-size="11">portfolio.tsx</text>

  <!-- Screen body -->
  <rect x="14" y="40" width="352" height="206" fill="#16161e"/>

  <g font-size="13">
    <text x="28" y="64" fill="#565a72">1</text>
    <text x="48" y="64" fill="#bb9af7">const</text>
    <text x="90" y="64" fill="#7dcfff">developer</text>
    <text x="176" y="64" fill="#c0caf5">= {</text>

    <text x="28" y="84" fill="#565a72">2</text>
    <text x="56" y="84" fill="#7aa2f7">name</text>
    <text x="92" y="84" fill="#c0caf5">:</text>
    <text x="102" y="84" fill="#9ece6a">"Prathamesh"</text>
    <text x="202" y="84" fill="#c0caf5">,</text>

    <text x="28" y="104" fill="#565a72">3</text>
    <text x="56" y="104" fill="#7aa2f7">stack</text>
    <text x="100" y="104" fill="#c0caf5">:</text>
    <text x="110" y="104" fill="#9ece6a">"MERN + AI"</text>
    <text x="208" y="104" fill="#c0caf5">,</text>

    <text x="28" y="124" fill="#565a72">4</text>
    <text x="56" y="124" fill="#7aa2f7">cgpa</text>
    <text x="96" y="124" fill="#c0caf5">:</text>
    <text x="106" y="124" fill="#ff9e64">9.17</text>
    <text x="138" y="124" fill="#c0caf5">,</text>

    <text x="28" y="144" fill="#565a72">5</text>
    <text x="48" y="144" fill="#c0caf5">};</text>

    <text x="28" y="174" fill="#565a72">6</text>
    <text x="48" y="174" fill="#bb9af7">function</text>
    <text x="110" y="174" fill="#7dcfff">build</text>
    <text x="152" y="174" fill="#c0caf5">() {</text>

    <text x="28" y="214" fill="#565a72">7</text>
    <text x="48" y="214" fill="#c0caf5">}</text>
  </g>

  <!-- Typewriter line: revealed via clip-path width animation -->
  <clipPath id="reveal">
    <rect x="56" y="184" width="0" height="20">
      <animate attributeName="width" values="0;0;280;280;280;0" keyTimes="0;0.1;0.55;0.85;0.95;1" dur="6s" repeatCount="indefinite"/>
    </rect>
  </clipPath>
  <g clip-path="url(#reveal)">
    <text x="56" y="194" fill="#9ece6a" font-size="13">return &lt;DreamApp /&gt;;</text>
  </g>

  <!-- Blinking caret that tracks the reveal -->
  <rect y="182" width="8" height="16" fill="#7aa2f7">
    <animate attributeName="x" values="56;56;336;336;336;56" keyTimes="0;0.1;0.55;0.85;0.95;1" dur="6s" repeatCount="indefinite"/>
    <animate attributeName="opacity" values="1;0;1;0;1;0;1;0;1;0;1" dur="1s" repeatCount="indefinite"/>
  </rect>

  <!-- Bottom status bar -->
  <rect x="10" y="232" width="360" height="18" fill="#1a1b27"/>
  <circle cx="26" cy="241" r="3" fill="#9ece6a">
    <animate attributeName="opacity" values="1;0.4;1" dur="2s" repeatCount="indefinite"/>
  </circle>
  <text x="36" y="245" fill="#737aa2" font-size="10">connected</text>
  <text x="354" y="245" text-anchor="end" fill="#737aa2" font-size="10">UTF-8</text>
</svg>
